PathFileType	4	(X/Y/Z)	/Users/niels/Desktop/University/Third Semester/Perception and Action/Exam/Gymnastics Motion Tracking/Code for Gym Tracking/Analyzed Data/Webcam_Backflip/id1_5_trajectory_Sports2D/id1_5_trajectory_Sports2D_px_person00.trc
DataRate	CameraRate	NumFrames	NumMarkers	Units	OrigDataRate	OrigDataStartFrame	OrigNumFrames
29.87551867219917	29.87551867219917	11	22	m	29.87551867219917	150	241
Frame#	Time	Hip			RHip			RKnee			RAnkle			RBigToe			RSmallToe			RHeel			LHip			LKnee			LAnkle			LBigToe			LSmallToe			LHeel			Neck			Head			Nose			RShoulder			RElbow			RWrist			LShoulder			LElbow			LWrist		
		X1	Y1	Z1	X2	Y2	Z2	X3	Y3	Z3	X4	Y4	Z4	X5	Y5	Z5	X6	Y6	Z6	X7	Y7	Z7	X8	Y8	Z8	X9	Y9	Z9	X10	Y10	Z10	X11	Y11	Z11	X12	Y12	Z12	X13	Y13	Z13	X14	Y14	Z14	X15	Y15	Z15	X16	Y16	Z16	X17	Y17	Z17	X18	Y18	Z18	X19	Y19	Z19	X20	Y20	Z20	X21	Y21	Z21	X22	Y22	Z22
150	5.020833333333333	0.9480773408737792	-0.5920918601152804	0.0	0.9364502072447409	-0.5939811371033147	0.0	0.938625367536467	-0.7025503232902217	0.0	0.9299694492136048	-0.8267746956738222	0.0	0.9676403286101765	-0.8397652268878161	0.0	0.956579879198707	-0.8431917632503655	0.0	0.9225442795703447	-0.8424188464660424	0.0	0.9642970620502153	-0.5950829588751905	0.0	0.9638766202640171	-0.7004426549971637	0.0	0.9522170832908811	-0.8151959911932518	0.0	0.9996501317446866	-0.8318849917463506	0.0	0.9962581844959978	-0.8288031900348118	0.0	0.9433417424533328	-0.8327178895478057	0.0	0.9677086636216123	-0.42025591902913517	0.0	1.007214586361912	-0.35343803505752536	0.0	1.0080536083076	-0.4001828383235103	0.0	0.9256538016802475	-0.43877590181720755	0.0	0.8908252516186101	-0.5103575274229273	0.0	0.904559273926819	-0.5858088105304956	0.0	0.9832163572352862	-0.4448606695215121	0.0	0.9870854760475529	-0.5130541460885748	0.0	1.0400613654329243	-0.5621555518376237	0.0
151	5.054305555555556	0.9491128742393115	-0.5945723532126086	0.0	0.9368846545305782	-0.5968144891549485	0.0	0.935714981983487	-0.7060383043329368	0.0	0.928763241908214	-0.829339469361331	0.0	0.9623460745693819	-0.8416832428408306	0.0	0.9496397078884815	-0.8455044519495967	0.0	0.9220872080672143	-0.8444126104768659	0.0	0.9655963307746014	-0.5978737235169317	0.0	0.9647999632818026	-0.7025528607813598	0.0	0.9523755299572784	-0.816900275742102	0.0	1.0002771112172641	-0.8330447918288569	0.0	0.9967184410849734	-0.8297186956854375	0.0	0.9434492533326484	-0.8338054089421018	0.0	0.9668189168635448	-0.421136516203128	0.0	1.003381875061872	-0.35287954861776993	0.0	1.005024864152237	-0.40015084083895874	0.0	0.9240775580368341	-0.44003182173824873	0.0	0.8911669679329437	-0.512193756485288	0.0	0.90915915610856	-0.5861854185189412	0.0	0.9835991529742459	-0.44693751051367914	0.0	0.9889408457622803	-0.515986563385728	0.0	1.0429579478477375	-0.5644570777785611	0.0
152	5.087777777777778	0.9501018829038392	-0.5969602279784628	0.0	0.9371438219952045	-0.599304131088742	0.0	0.9335335380307993	-0.7093712692495044	0.0	0.9276981844674123	-0.8318073943950078	0.0	0.9573604075511856	-0.8435156436089768	0.0	0.9433813939480264	-0.8476531739511771	0.0	0.9216824614288148	-0.8465040984064705	0.0	0.9670295849146466	-0.6004022408677167	0.0	0.9658461014970999	-0.7048457454349268	0.0	0.9524759079353442	-0.818707842317558	0.0	1.000703324374407	-0.8344180097006837	0.0	0.997032003595601	-0.8308741415560786	0.0	0.9434823695203912	-0.8351702528840779	0.0	0.9661166719590604	-0.422379378929757	0.0	0.99971607381508	-0.3529665331550788	0.0	1.001560806600517	-0.4004844578140769	0.0	0.9226299231638703	-0.44162870640075247	0.0	0.8917040428374775	-0.5143987610131447	0.0	0.9137502709836782	-0.5868270710109806	0.0	0.9842917031525057	-0.4495690511302327	0.0	0.9904157710691615	-0.5199537155323599	0.0	1.0441171293562914	-0.5690651304592662	0.0
153	5.12125	0.9510277699002345	-0.5988714474747202	0.0	0.9373140978026085	-0.6010815358224577	0.0	0.9321856242973245	-0.7122260722359177	0.0	0.9269291500556409	-0.8339585889845789	0.0	0.9535290115900255	-0.8451956707791174	0.0	0.9387612897913497	-0.8494385333284404	0.0	0.9214028752032153	-0.8484654245440177	0.0	0.968513330408014	-0.6023139466478985	0.0	0.966957721161746	-0.7070461808756886	0.0	0.9525492395057378	-0.8202780493373081	0.0	1.0009148565503307	-0.8357876347943308	0.0	0.9972036701508467	-0.8320648706290644	0.0	0.9434615189529519	-0.8364803144238204	0.0	0.9656033122185944	-0.4236655158865821	0.0	0.9963446279185977	-0.3533801049900569	0.0	0.997878510461482	-0.40082646295111246	0.0	0.9213727223176776	-0.44325181692726257	0.0	0.892403926068982	-0.5166889660478793	0.0	0.9180421162914585	-0.5875801123961885	0.0	0.9852084817701471	-0.45226940950626016	0.0	0.9913562185370411	-0.5243779501886345	0.0	1.0432775313554252	-0.5754549157854348	0.0
154	5.154722222222222	0.9520096435724694	-0.6001200307132281	0.0	0.937548707141904	-0.6020108654272978	0.0	0.93163984504014	-0.7144407670704314	0.0	0.9264908209378807	-0.8355820983352895	0.0	0.9510930980782599	-0.84674952948025	0.0	0.9358944874445556	-0.8507872695916158	0.0	0.9212435334272745	-0.8500598912885544	0.0	0.9700394123272306	-0.6033811578962951	0.0	0.9680292844695106	-0.7089361620203342	0.0	0.9526020340966993	-0.8213225531780483	0.0	1.0009555915377426	-0.8368708645481422	0.0	0.9972756620647152	-0.8329942953451132	0.0	0.943455404782407	-0.8374162973885606	0.0	0.9652284963097195	-0.42472280136311374	0.0	0.9933752513603841	-0.35377330326745576	0.0	0.9943086910830187	-0.40090030578089003	0.0	0.9203513817401634	-0.4446159485766864	0.0	0.8932173689160431	-0.5187727877651461	0.0	0.9217248264858041	-0.5883084978728289	0.0	0.9862698359593551	-0.45456980747875725	0.0	0.9916480955560147	-0.528653247061339	0.0	1.0402465782099624	-0.5828935683219909	0.0
155	5.188194444444444	0.9532105882709564	-0.6006992311922593	0.0	0.937985258604495	-0.6021476697857596	0.0	0.9316976474811048	-0.7159979418734186	0.0	0.9263108378084755	-0.8365917093497808	0.0	0.9500411394016971	-0.8482243463142785	0.0	0.9346422800116011	-0.8517521521631234	0.0	0.9211769222652246	-0.8511631033322992	0.0	0.9716439843662275	-0.6035008714189751	0.0	0.9689919450768242	-0.7103356564932751	0.0	0.9526434323514023	-0.8216815104395664	0.0	1.000889791228447	-0.8374135322204491	0.0	0.9972981075501309	-0.8333880938281535	0.0	0.9435385019377471	-0.8377796552341672	0.0	0.9649408152748689	-0.4253353079929113	0.0	0.9908806306004359	-0.3538445560749223	0.0	0.9911364699156612	-0.4005394819887186	0.0	0.919598031199293	-0.4455089665320281	0.0	0.8940803637901534	-0.5203864937602979	0.0	0.9245156186362359	-0.5889395108554455	0.0	0.9874190141117808	-0.4561204342231748	0.0	0.9913008459116651	-0.5322023081454247	0.0	1.035061327627344	-0.5905230852379907	0.0
156	5.221666666666667	0.9547071598742815	-0.6006902476968007	0.0	0.9386549402328681	-0.6016565689362406	0.0	0.9320430712176956	-0.7168853046060977	0.0	0.9262437202350243	-0.8369927598199086	0.0	0.9501547758518484	-0.8495981736447077	0.0	0.9347196542122185	-0.8523882933885709	0.0	0.9211759764790827	-0.8517496089198552	0.0	0.9733274263208531	-0.6027534546235086	0.0	0.9698502035891511	-0.711076961086247	0.0	0.952703896607936	-0.8213585788347618	0.0	1.0007694912942482	-0.8372795261995185	0.0	0.9973067434633383	-0.8331130771683766	0.0	0.9437333398139378	-0.8375477826132812	0.0	0.9647303207337175	-0.42533073256135595	0.0	0.9888453029078537	-0.35337764472819255	0.0	0.9884837088724954	-0.3996404260395015	0.0	0.9191217359481063	-0.44581814845103274	0.0	0.8949384344282079	-0.5213527517683567	0.0	0.9262435376805167	-0.5894854453527847	0.0	0.9886295428100254	-0.4567416202075967	0.0	0.9905004627702222	-0.5345336953683942	0.0	1.0281205856740006	-0.5974148823989036	0.0
157	5.255138888888889	0.9564152830217915	-0.6001679765726194	0.0	0.9394648004663961	-0.6007300385649447	0.0	0.9323765203171939	-0.7170197980452137	0.0	0.926174766763388	-0.8368248857887082	0.0	0.9509267742884965	-0.8506944032929417	0.0	0.935560520510261	-0.852618187739223	0.0	0.9212318166381274	-0.8518316130428022	0.0	0.9750062448322345	-0.6014159179782248	0.0	0.9706222756500028	-0.7110770999377412	0.0	0.952822054721182	-0.820483602396274	0.0	1.000615935082448	-0.8365069515617084	0.0	0.9973380675316742	-0.8322315459763668	0.0	0.9439986032902571	-0.8368356468566575	0.0	0.9646388135200828	-0.4245755507998164	0.0	0.9871571871840601	-0.3522648006562638	0.0	0.9863222176364881	-0.39810654720103406	0.0	0.918887390478038	-0.4455202337345896	0.0	0.8957717952836451	-0.5216121115121564	0.0	0.9269003102223041	-0.5899881263887453	0.0	0.989917235722491	-0.45641349739721276	0.0	0.9895778957313671	-0.535344437480848	0.0	1.0202623702210687	-0.6026798963824795	0.0
158	5.288611111111111	0.9581355482217975	-0.5991819258477109	0.0	0.9402784216074875	-0.5994981900457224	0.0	0.9325528834811575	-0.7163341071148664	0.0	0.9261136613539465	-0.8361461271158186	0.0	0.9517440776805172	-0.8512628634962984	0.0	0.9364765934155513	-0.8523118402441852	0.0	0.9213751183538952	-0.8514279014752094	0.0	0.9765744476720879	-0.599810698852173	0.0	0.9712816217293598	-0.7103824398510608	0.0	0.953017827792116	-0.8192172681234025	0.0	1.0004000076055177	-0.8353183040367065	0.0	0.9974227036496496	-0.8309601979642487	0.0	0.944293763414079	-0.8357785318693106	0.0	0.9647330382410078	-0.42303476912427984	0.0	0.9857084873401563	-0.3505041094615832	0.0	0.9845942992156139	-0.3958940290839792	0.0	0.9188395551698578	-0.44464748643528496	0.0	0.8965941548340324	-0.5211976656207573	0.0	0.9266141478439257	-0.5904483778166492	0.0	0.9913055055643809	-0.4552296866738838	0.0	0.9889134751970328	-0.5346388758586358	0.0	1.0127486821073837	-0.6056767757253725	0.0
159	5.3220833333333335	0.9596516643933878	-0.5977884594534804	0.0	0.9409980526824075	-0.5979676934231647	0.0	0.9326097256131706	-0.7149115656004756	0.0	0.9261555845337889	-0.8349932375732403	0.0	0.9522106298579396	-0.8512156548194313	0.0	0.937054609823421	-0.8515303243823489	0.0	0.9216364932556116	-0.8505521861548324	0.0	0.977972708760828	-0.5980811936240137	0.0	0.9717683705451265	-0.7091037285284093	0.0	0.9532951949146807	-0.8176656158319919	0.0	1.0001325355395292	-0.8340361031165092	0.0	0.9976037583363725	-0.8295715905511992	0.0	0.9446507112168124	-0.8344449346141404	0.0	0.9650388149495905	-0.42086675513954164	0.0	0.9845283963312174	-0.34815741352092433	0.0	0.9833238181468171	-0.3931346423740981	0.0	0.9189459303008615	-0.44326871196772516	0.0	0.8974115434737141	-0.5201750204360377	0.0	0.9255548931337615	-0.5908037118539675	0.0	0.9927623655369717	-0.45336507209955507	0.0	0.988834367678733	-0.5327458376404397	0.0	1.007019226093135	-0.6062734242155352	0.0
160	5.355555555555556	0.9607848444015425	-0.596062164144485	0.0	0.9415658214575381	-0.5960589371486112	0.0	0.9326862376478143	-0.7129985641822382	0.0	0.9263521937340159	-0.833404395155902	0.0	0.9522076567112154	-0.8507212033845591	0.0	0.9372525388168904	-0.8505952785915255	0.0	0.9219843661886223	-0.8492507566322387	0.0	0.979154117827821	-0.5961356947927372	0.0	0.9720320597373051	-0.7073762501174725	0.0	0.9536617492385979	-0.8158906303946901	0.0	0.9999734384199013	-0.8329292498849364	0.0	0.9979784609242383	-0.8283087673391419	0.0	0.9451354804736073	-0.832868397050572	0.0	0.9655071684164936	-0.41840877303045515	0.0	0.9837658674337728	-0.3453395373618817	0.0	0.9825909818053237	-0.3901397060715599	0.0	0.9191869538027323	-0.4415082852362149	0.0	0.8981782789515508	-0.5186268768938364	0.0	0.9238657087951646	-0.5909402367123631	0.0	0.9942049073008279	-0.4510841147289025	0.0	0.9895101754137877	-0.5301976132197228	0.0	1.0041872616159417	-0.6049738569681853	0.0
